<mxfile host="Electron" modified="2024-02-10T21:11:01.089Z" agent="Mozilla/5.0 (Windows NT 10.0; Win64; x64) AppleWebKit/537.36 (KHTML, like Gecko) draw.io/23.0.2 Chrome/120.0.6099.109 Electron/28.1.0 Safari/537.36" etag="AjXkSe5TB-179yUuuKq_" version="23.0.2" type="device">
  <diagram name="Страница — 1" id="lwFxoNZVOsWcV77fsAZV">
    <mxGraphModel dx="698" dy="470" grid="1" gridSize="10" guides="1" tooltips="1" connect="1" arrows="1" fold="1" page="1" pageScale="1" pageWidth="827" pageHeight="1169" math="0" shadow="0">
      <root>
        <mxCell id="0" />
        <mxCell id="1" parent="0" />
        <mxCell id="IgeLQids6hlCfI4V9-Eq-91" value="" style="rounded=1;whiteSpace=wrap;html=1;fillColor=#f5f5f5;strokeColor=#666666;fontColor=#333333;" parent="1" vertex="1">
          <mxGeometry x="180" y="190" width="390" height="790" as="geometry" />
        </mxCell>
        <mxCell id="IgeLQids6hlCfI4V9-Eq-2" value="" style="rounded=1;whiteSpace=wrap;html=1;" parent="1" vertex="1">
          <mxGeometry x="210" y="220" width="330" height="230" as="geometry" />
        </mxCell>
        <mxCell id="IgeLQids6hlCfI4V9-Eq-3" value="&lt;b&gt;Форма регистрации&lt;/b&gt;" style="text;html=1;strokeColor=none;fillColor=none;align=center;verticalAlign=middle;whiteSpace=wrap;rounded=0;" parent="1" vertex="1">
          <mxGeometry x="305" y="220" width="140" height="30" as="geometry" />
        </mxCell>
        <mxCell id="IgeLQids6hlCfI4V9-Eq-5" value="Электронная почта" style="text;html=1;strokeColor=none;fillColor=none;align=center;verticalAlign=middle;whiteSpace=wrap;rounded=0;" parent="1" vertex="1">
          <mxGeometry x="230" y="250" width="110" height="30" as="geometry" />
        </mxCell>
        <mxCell id="IgeLQids6hlCfI4V9-Eq-6" value="&lt;font color=&quot;#999999&quot;&gt;Email&lt;/font&gt;" style="rounded=0;whiteSpace=wrap;html=1;" parent="1" vertex="1">
          <mxGeometry x="230" y="280" width="290" height="30" as="geometry" />
        </mxCell>
        <mxCell id="IgeLQids6hlCfI4V9-Eq-7" value="Пароль" style="text;html=1;strokeColor=none;fillColor=none;align=center;verticalAlign=middle;whiteSpace=wrap;rounded=0;" parent="1" vertex="1">
          <mxGeometry x="230" y="310" width="50" height="30" as="geometry" />
        </mxCell>
        <mxCell id="IgeLQids6hlCfI4V9-Eq-8" value="&lt;font color=&quot;#999999&quot;&gt;Password&lt;/font&gt;" style="rounded=0;whiteSpace=wrap;html=1;" parent="1" vertex="1">
          <mxGeometry x="230" y="340" width="290" height="30" as="geometry" />
        </mxCell>
        <mxCell id="IgeLQids6hlCfI4V9-Eq-9" value="Зарегистрироваться" style="rounded=0;whiteSpace=wrap;html=1;fillColor=#dae8fc;strokeColor=#6c8ebf;" parent="1" vertex="1">
          <mxGeometry x="230" y="380" width="150" height="30" as="geometry" />
        </mxCell>
        <mxCell id="IgeLQids6hlCfI4V9-Eq-10" value="&lt;font color=&quot;#ff0000&quot;&gt;Сообщение об ошибке&lt;/font&gt;" style="text;html=1;strokeColor=none;fillColor=none;align=center;verticalAlign=middle;whiteSpace=wrap;rounded=0;" parent="1" vertex="1">
          <mxGeometry x="230" y="420" width="130" height="30" as="geometry" />
        </mxCell>
        <mxCell id="IgeLQids6hlCfI4V9-Eq-97" value="" style="ellipse;whiteSpace=wrap;html=1;" parent="1" vertex="1">
          <mxGeometry x="365" y="180" width="20" height="20" as="geometry" />
        </mxCell>
        <mxCell id="IgeLQids6hlCfI4V9-Eq-98" value="" style="endArrow=classic;html=1;rounded=1;exitX=0.5;exitY=1;exitDx=0;exitDy=0;entryX=0.5;entryY=0;entryDx=0;entryDy=0;curved=0;" parent="1" source="IgeLQids6hlCfI4V9-Eq-97" target="IgeLQids6hlCfI4V9-Eq-3" edge="1">
          <mxGeometry width="50" height="50" relative="1" as="geometry">
            <mxPoint x="550" y="703" as="sourcePoint" />
            <mxPoint x="690" y="703" as="targetPoint" />
          </mxGeometry>
        </mxCell>
        <mxCell id="gaqFN2lzKPNnljJ36ulY-1" value="Валидация данных (на клиенте)" style="rounded=1;whiteSpace=wrap;html=1;fillColor=#fff2cc;strokeColor=#d6b656;" parent="1" vertex="1">
          <mxGeometry x="233" y="510" width="120" height="60" as="geometry" />
        </mxCell>
        <mxCell id="gaqFN2lzKPNnljJ36ulY-2" value="" style="endArrow=classic;html=1;rounded=1;exitX=0.25;exitY=1;exitDx=0;exitDy=0;entryX=0.5;entryY=0;entryDx=0;entryDy=0;curved=0;" parent="1" source="IgeLQids6hlCfI4V9-Eq-2" target="gaqFN2lzKPNnljJ36ulY-1" edge="1">
          <mxGeometry width="50" height="50" relative="1" as="geometry">
            <mxPoint x="550" y="345" as="sourcePoint" />
            <mxPoint x="770" y="345" as="targetPoint" />
          </mxGeometry>
        </mxCell>
        <mxCell id="gaqFN2lzKPNnljJ36ulY-3" value="Нажали кнопку &quot;Зарегистрироваться&quot;" style="edgeLabel;html=1;align=center;verticalAlign=middle;resizable=0;points=[];" parent="gaqFN2lzKPNnljJ36ulY-2" vertex="1" connectable="0">
          <mxGeometry x="-0.0186" y="1" relative="1" as="geometry">
            <mxPoint y="-9" as="offset" />
          </mxGeometry>
        </mxCell>
        <mxCell id="gaqFN2lzKPNnljJ36ulY-4" value="" style="rhombus;whiteSpace=wrap;html=1;" parent="1" vertex="1">
          <mxGeometry x="442" y="532.5" width="30" height="15" as="geometry" />
        </mxCell>
        <mxCell id="gaqFN2lzKPNnljJ36ulY-5" value="" style="endArrow=classic;html=1;rounded=1;exitX=0.5;exitY=0;exitDx=0;exitDy=0;entryX=0.75;entryY=1;entryDx=0;entryDy=0;curved=0;" parent="1" source="gaqFN2lzKPNnljJ36ulY-4" target="IgeLQids6hlCfI4V9-Eq-2" edge="1">
          <mxGeometry width="50" height="50" relative="1" as="geometry">
            <mxPoint x="550" y="345" as="sourcePoint" />
            <mxPoint x="770" y="345" as="targetPoint" />
          </mxGeometry>
        </mxCell>
        <mxCell id="gaqFN2lzKPNnljJ36ulY-7" value="" style="endArrow=classic;html=1;rounded=1;exitX=1;exitY=0.5;exitDx=0;exitDy=0;entryX=0;entryY=0.5;entryDx=0;entryDy=0;curved=0;" parent="1" source="gaqFN2lzKPNnljJ36ulY-1" target="gaqFN2lzKPNnljJ36ulY-4" edge="1">
          <mxGeometry width="50" height="50" relative="1" as="geometry">
            <mxPoint x="550" y="345" as="sourcePoint" />
            <mxPoint x="770" y="345" as="targetPoint" />
          </mxGeometry>
        </mxCell>
        <mxCell id="gaqFN2lzKPNnljJ36ulY-9" value="[ошибка]" style="edgeLabel;html=1;align=center;verticalAlign=middle;resizable=0;points=[];" parent="gaqFN2lzKPNnljJ36ulY-7" vertex="1" connectable="0">
          <mxGeometry x="-0.0094" y="3" relative="1" as="geometry">
            <mxPoint y="-4" as="offset" />
          </mxGeometry>
        </mxCell>
        <mxCell id="gaqFN2lzKPNnljJ36ulY-10" value="Валидация данных (на сервере)" style="rounded=1;whiteSpace=wrap;html=1;fillColor=#fff2cc;strokeColor=#d6b656;" parent="1" vertex="1">
          <mxGeometry x="233" y="630" width="120" height="60" as="geometry" />
        </mxCell>
        <mxCell id="gaqFN2lzKPNnljJ36ulY-11" value="" style="endArrow=classic;html=1;rounded=1;exitX=0.5;exitY=1;exitDx=0;exitDy=0;entryX=0.5;entryY=0;entryDx=0;entryDy=0;curved=0;" parent="1" source="gaqFN2lzKPNnljJ36ulY-1" target="gaqFN2lzKPNnljJ36ulY-10" edge="1">
          <mxGeometry width="50" height="50" relative="1" as="geometry">
            <mxPoint x="293" y="570" as="sourcePoint" />
            <mxPoint x="770" y="465" as="targetPoint" />
          </mxGeometry>
        </mxCell>
        <mxCell id="gaqFN2lzKPNnljJ36ulY-12" value="[ok]" style="edgeLabel;html=1;align=center;verticalAlign=middle;resizable=0;points=[];" parent="gaqFN2lzKPNnljJ36ulY-11" vertex="1" connectable="0">
          <mxGeometry x="-0.0186" y="1" relative="1" as="geometry">
            <mxPoint x="11" y="-9" as="offset" />
          </mxGeometry>
        </mxCell>
        <mxCell id="gaqFN2lzKPNnljJ36ulY-13" value="" style="rhombus;whiteSpace=wrap;html=1;" parent="1" vertex="1">
          <mxGeometry x="442" y="652.5" width="30" height="15" as="geometry" />
        </mxCell>
        <mxCell id="gaqFN2lzKPNnljJ36ulY-14" value="" style="endArrow=classic;html=1;rounded=1;exitX=0.5;exitY=0;exitDx=0;exitDy=0;entryX=0.5;entryY=1;entryDx=0;entryDy=0;curved=0;" parent="1" source="gaqFN2lzKPNnljJ36ulY-13" target="gaqFN2lzKPNnljJ36ulY-4" edge="1">
          <mxGeometry width="50" height="50" relative="1" as="geometry">
            <mxPoint x="550" y="465" as="sourcePoint" />
            <mxPoint x="458" y="570" as="targetPoint" />
          </mxGeometry>
        </mxCell>
        <mxCell id="gaqFN2lzKPNnljJ36ulY-15" value="" style="endArrow=classic;html=1;rounded=1;exitX=1;exitY=0.5;exitDx=0;exitDy=0;entryX=0;entryY=0.5;entryDx=0;entryDy=0;curved=0;" parent="1" source="gaqFN2lzKPNnljJ36ulY-10" target="gaqFN2lzKPNnljJ36ulY-13" edge="1">
          <mxGeometry width="50" height="50" relative="1" as="geometry">
            <mxPoint x="550" y="465" as="sourcePoint" />
            <mxPoint x="770" y="465" as="targetPoint" />
          </mxGeometry>
        </mxCell>
        <mxCell id="gaqFN2lzKPNnljJ36ulY-16" value="[ошибка]" style="edgeLabel;html=1;align=center;verticalAlign=middle;resizable=0;points=[];" parent="gaqFN2lzKPNnljJ36ulY-15" vertex="1" connectable="0">
          <mxGeometry x="-0.0094" y="3" relative="1" as="geometry">
            <mxPoint y="-4" as="offset" />
          </mxGeometry>
        </mxCell>
        <mxCell id="gaqFN2lzKPNnljJ36ulY-24" value="Проверка отсутствия почты в системе" style="rounded=1;whiteSpace=wrap;html=1;fillColor=#fff2cc;strokeColor=#d6b656;" parent="1" vertex="1">
          <mxGeometry x="233" y="749.5" width="120" height="60" as="geometry" />
        </mxCell>
        <mxCell id="gaqFN2lzKPNnljJ36ulY-25" value="" style="endArrow=classic;html=1;rounded=1;exitX=0.5;exitY=1;exitDx=0;exitDy=0;entryX=0.5;entryY=0;entryDx=0;entryDy=0;curved=0;" parent="1" source="gaqFN2lzKPNnljJ36ulY-10" target="gaqFN2lzKPNnljJ36ulY-24" edge="1">
          <mxGeometry width="50" height="50" relative="1" as="geometry">
            <mxPoint x="293" y="689.5" as="sourcePoint" />
            <mxPoint x="770" y="584.5" as="targetPoint" />
          </mxGeometry>
        </mxCell>
        <mxCell id="gaqFN2lzKPNnljJ36ulY-26" value="[ok]" style="edgeLabel;html=1;align=center;verticalAlign=middle;resizable=0;points=[];" parent="gaqFN2lzKPNnljJ36ulY-25" vertex="1" connectable="0">
          <mxGeometry x="-0.0186" y="1" relative="1" as="geometry">
            <mxPoint x="11" y="-9" as="offset" />
          </mxGeometry>
        </mxCell>
        <mxCell id="gaqFN2lzKPNnljJ36ulY-27" value="" style="rhombus;whiteSpace=wrap;html=1;" parent="1" vertex="1">
          <mxGeometry x="442" y="772" width="30" height="15" as="geometry" />
        </mxCell>
        <mxCell id="gaqFN2lzKPNnljJ36ulY-28" value="" style="endArrow=classic;html=1;rounded=1;exitX=0.5;exitY=0;exitDx=0;exitDy=0;entryX=0.5;entryY=1;entryDx=0;entryDy=0;curved=0;" parent="1" source="gaqFN2lzKPNnljJ36ulY-27" target="gaqFN2lzKPNnljJ36ulY-13" edge="1">
          <mxGeometry width="50" height="50" relative="1" as="geometry">
            <mxPoint x="550" y="584.5" as="sourcePoint" />
            <mxPoint x="457" y="667.5" as="targetPoint" />
          </mxGeometry>
        </mxCell>
        <mxCell id="gaqFN2lzKPNnljJ36ulY-29" value="" style="endArrow=classic;html=1;rounded=1;exitX=1;exitY=0.5;exitDx=0;exitDy=0;entryX=0;entryY=0.5;entryDx=0;entryDy=0;curved=0;" parent="1" source="gaqFN2lzKPNnljJ36ulY-24" target="gaqFN2lzKPNnljJ36ulY-27" edge="1">
          <mxGeometry width="50" height="50" relative="1" as="geometry">
            <mxPoint x="550" y="584.5" as="sourcePoint" />
            <mxPoint x="770" y="584.5" as="targetPoint" />
          </mxGeometry>
        </mxCell>
        <mxCell id="gaqFN2lzKPNnljJ36ulY-30" value="[else]" style="edgeLabel;html=1;align=center;verticalAlign=middle;resizable=0;points=[];" parent="gaqFN2lzKPNnljJ36ulY-29" vertex="1" connectable="0">
          <mxGeometry x="-0.0094" y="3" relative="1" as="geometry">
            <mxPoint y="-4" as="offset" />
          </mxGeometry>
        </mxCell>
        <mxCell id="gaqFN2lzKPNnljJ36ulY-37" value="Создание учётной записи" style="rounded=1;whiteSpace=wrap;html=1;fillColor=#fff2cc;strokeColor=#d6b656;" parent="1" vertex="1">
          <mxGeometry x="233" y="868.5" width="120" height="60" as="geometry" />
        </mxCell>
        <mxCell id="gaqFN2lzKPNnljJ36ulY-38" value="" style="endArrow=classic;html=1;rounded=1;entryX=0.5;entryY=0;entryDx=0;entryDy=0;curved=0;" parent="1" target="gaqFN2lzKPNnljJ36ulY-37" edge="1">
          <mxGeometry width="50" height="50" relative="1" as="geometry">
            <mxPoint x="293" y="810" as="sourcePoint" />
            <mxPoint x="770" y="703.5" as="targetPoint" />
          </mxGeometry>
        </mxCell>
        <mxCell id="gaqFN2lzKPNnljJ36ulY-39" value="[почты нет в системе]" style="edgeLabel;html=1;align=center;verticalAlign=middle;resizable=0;points=[];" parent="gaqFN2lzKPNnljJ36ulY-38" vertex="1" connectable="0">
          <mxGeometry x="-0.0186" y="1" relative="1" as="geometry">
            <mxPoint x="56" y="-9" as="offset" />
          </mxGeometry>
        </mxCell>
        <mxCell id="gaqFN2lzKPNnljJ36ulY-40" value="" style="rhombus;whiteSpace=wrap;html=1;" parent="1" vertex="1">
          <mxGeometry x="442" y="891" width="30" height="15" as="geometry" />
        </mxCell>
        <mxCell id="gaqFN2lzKPNnljJ36ulY-41" value="" style="endArrow=classic;html=1;rounded=1;exitX=0.5;exitY=0;exitDx=0;exitDy=0;entryX=0.5;entryY=1;entryDx=0;entryDy=0;curved=0;" parent="1" source="gaqFN2lzKPNnljJ36ulY-40" target="gaqFN2lzKPNnljJ36ulY-27" edge="1">
          <mxGeometry width="50" height="50" relative="1" as="geometry">
            <mxPoint x="550" y="703.5" as="sourcePoint" />
            <mxPoint x="457" y="787" as="targetPoint" />
          </mxGeometry>
        </mxCell>
        <mxCell id="gaqFN2lzKPNnljJ36ulY-42" value="" style="endArrow=classic;html=1;rounded=1;exitX=1;exitY=0.5;exitDx=0;exitDy=0;entryX=0;entryY=0.5;entryDx=0;entryDy=0;curved=0;" parent="1" source="gaqFN2lzKPNnljJ36ulY-37" target="gaqFN2lzKPNnljJ36ulY-40" edge="1">
          <mxGeometry width="50" height="50" relative="1" as="geometry">
            <mxPoint x="550" y="703.5" as="sourcePoint" />
            <mxPoint x="770" y="703.5" as="targetPoint" />
          </mxGeometry>
        </mxCell>
        <mxCell id="gaqFN2lzKPNnljJ36ulY-43" value="[ошибка]" style="edgeLabel;html=1;align=center;verticalAlign=middle;resizable=0;points=[];" parent="gaqFN2lzKPNnljJ36ulY-42" vertex="1" connectable="0">
          <mxGeometry x="-0.0094" y="3" relative="1" as="geometry">
            <mxPoint y="-4" as="offset" />
          </mxGeometry>
        </mxCell>
        <mxCell id="gaqFN2lzKPNnljJ36ulY-44" value="" style="shape=sumEllipse;perimeter=ellipsePerimeter;html=1;backgroundOutline=1;" parent="1" vertex="1">
          <mxGeometry x="283" y="970" width="20" height="20" as="geometry" />
        </mxCell>
        <mxCell id="gaqFN2lzKPNnljJ36ulY-45" value="" style="endArrow=classic;html=1;rounded=1;entryX=0.5;entryY=0;entryDx=0;entryDy=0;curved=0;exitX=0.5;exitY=1;exitDx=0;exitDy=0;" parent="1" source="gaqFN2lzKPNnljJ36ulY-37" target="gaqFN2lzKPNnljJ36ulY-44" edge="1">
          <mxGeometry width="50" height="50" relative="1" as="geometry">
            <mxPoint x="303" y="820" as="sourcePoint" />
            <mxPoint x="303" y="878" as="targetPoint" />
          </mxGeometry>
        </mxCell>
        <mxCell id="gaqFN2lzKPNnljJ36ulY-46" value="[ok]" style="edgeLabel;html=1;align=center;verticalAlign=middle;resizable=0;points=[];" parent="gaqFN2lzKPNnljJ36ulY-45" vertex="1" connectable="0">
          <mxGeometry x="-0.0186" y="1" relative="1" as="geometry">
            <mxPoint x="11" y="-4" as="offset" />
          </mxGeometry>
        </mxCell>
      </root>
    </mxGraphModel>
  </diagram>
</mxfile>
